<?xml version="1.0" standalone="no"?><!DOCTYPE svg PUBLIC "-//W3C//DTD SVG 1.1//EN" "http://www.w3.org/Graphics/SVG/1.1/DTD/svg11.dtd"><svg t="1537610416968" class="icon" style="" viewBox="0 0 1024 1024" version="1.1" xmlns="http://www.w3.org/2000/svg" p-id="2038" xmlns:xlink="http://www.w3.org/1999/xlink" width="200" height="200"><defs><style type="text/css"></style></defs><path d="M54.272 942.08a30.72 30.72 0 0 0 30.72 30.72h399.36a30.72 30.72 0 0 0 30.72-30.72V81.92a30.72 30.72 0 0 0-30.72-30.72h-399.36a30.72 30.72 0 0 0-30.72 30.72z m276.48-721.92a30.72 30.72 0 0 1 30.72-30.72h30.72a30.72 30.72 0 0 1 30.72 30.72v30.72a30.72 30.72 0 0 1-30.72 30.72h-30.72a30.72 30.72 0 0 1-30.72-30.72z m0 207.36a30.72 30.72 0 0 1 30.72-30.72h30.72a30.72 30.72 0 0 1 30.72 30.72V460.8a30.72 30.72 0 0 1-30.72 30.72h-30.72a30.72 30.72 0 0 1-30.72-30.72z m0 207.36a30.72 30.72 0 0 1 30.72-30.72h30.72a30.72 30.72 0 0 1 30.72 30.72v30.72a30.72 30.72 0 0 1-30.72 30.72h-30.72a30.72 30.72 0 0 1-30.72-30.72z m-184.32-414.72a30.72 30.72 0 0 1 30.72-30.72h30.72a30.72 30.72 0 0 1 30.72 30.72v30.72a30.72 30.72 0 0 1-30.72 30.72h-30.72a30.72 30.72 0 0 1-30.72-30.72z m0 207.36a30.72 30.72 0 0 1 30.72-30.72h30.72a30.72 30.72 0 0 1 30.72 30.72V460.8a30.72 30.72 0 0 1-30.72 30.72h-30.72a30.72 30.72 0 0 1-30.72-30.72z m0 207.36a30.72 30.72 0 0 1 30.72-30.72h30.72a30.72 30.72 0 0 1 30.72 30.72v30.72a30.72 30.72 0 0 1-30.72 30.72h-30.72a30.72 30.72 0 0 1-30.72-30.72z" p-id="2039"></path><path d="M591.872 488.96a30.72 30.72 0 0 0-30.72 30.72v422.4a30.72 30.72 0 0 0 30.72 30.72h53.76a30.72 30.72 0 0 0 30.72-30.72v-161.792a30.72 30.72 0 0 1 30.72-30.72h122.88a30.72 30.72 0 0 1 30.72 30.72v161.792a30.72 30.72 0 0 0 30.72 30.72h53.76a30.72 30.72 0 0 0 30.72-30.72v-422.4a30.72 30.72 0 0 0-30.72-30.72z" p-id="2040"></path></svg>