<?xml version="1.0" standalone="no"?><!DOCTYPE svg PUBLIC "-//W3C//DTD SVG 1.1//EN" "http://www.w3.org/Graphics/SVG/1.1/DTD/svg11.dtd"><svg t="1537612271731" class="icon" style="" viewBox="0 0 1024 1024" version="1.1" xmlns="http://www.w3.org/2000/svg" p-id="7259" xmlns:xlink="http://www.w3.org/1999/xlink" width="200" height="200"><defs><style type="text/css"></style></defs><path d="M997.634615 497.063769l-146.072581-146.077999c-9.271325-9.273131-27.821198-9.273131-37.098544 0-9.270722 9.276743-9.270722 27.826617 0 37.098544l146.072581 146.077397c9.277345 9.271927 11.598337 30.141588 6.956955 44.054897-2.314369 4.635963-9.27012 27.824209-30.140986 27.824208h-69.561726c-13.908492 0-16.22828-4.638372-16.22828 9.274335v185.492116c0 62.599954-46.369868 99.698498-78.833652 99.698498h-136.79945V589.808924c0-13.913309 0-9.276743-13.913309-9.276743H397.102768c-13.90789 0-27.8218-4.636565-27.821801 9.276743v313.016027H255.66615c-30.141588 0-74.196485-39.418934-74.196485-99.703315v-185.492116c0-13.912706-4.636565-9.271927-20.864845-9.271926H91.042492c-20.869662 0-27.824811-23.190052-30.141588-27.826015-2.32039-4.636565-6.956955-25.503819 6.956353-39.411709l421.996686-426.63867c6.951537-6.952741 13.908492-11.592919 23.184633-11.592919 9.272529 0 16.228882 2.32039 23.185837 9.276743l162.306881 159.986491c9.271927 9.271927 27.821198 9.271927 37.097942 0 9.273733-9.276141 9.273733-27.826015 0-37.098543l-162.306881-150.713962c-16.227678-16.228882-37.097942-13.908492-60.283779-13.908492-23.184633 0-44.054897-2.32039-60.283176 16.229484L28.438925 504.015306C2.932698 529.520329-4.024257 571.25905 9.889052 603.716814c13.913911 32.464387 44.054897 57.968205 78.833652 57.968205h37.098544v141.436617c0 78.833653 51.01125 155.352936 127.528125 155.352936h519.379009c76.513865 0 132.159874-76.519885 132.159873-155.352936v-141.436617h32.463785c34.782368 0 67.23953-27.8218 78.833653-62.602362 13.911502-32.464387 6.956353-76.514467-18.551078-102.018888z m-577.341796 136.800052h162.308085v268.961732H420.292819v-268.961732z m0 0" p-id="7260"></path></svg>