<?xml version="1.0" standalone="no"?><!DOCTYPE svg PUBLIC "-//W3C//DTD SVG 1.1//EN" "http://www.w3.org/Graphics/SVG/1.1/DTD/svg11.dtd"><svg t="1535679924639" class="icon" style="" viewBox="0 0 1024 1024" version="1.1" xmlns="http://www.w3.org/2000/svg" p-id="5194" xmlns:xlink="http://www.w3.org/1999/xlink" width="200" height="200"><defs><style type="text/css"></style></defs><path d="M721.3 959.4c-131.4 0-238-106.6-238-238 0-131.5 106.6-238 238-238s238 106.5 238 238c0 131.4-106.5 238-238 238z m0-420c-99.5 0-180.4 79.9-182 179-1.7 102.4 82.5 186.6 185 185 99.1-1.6 179-82.5 179-182 0-100.6-81.5-182-182-182z m112 224h-140c-7.7 0-14-6.3-14-14v-126c0-15.5 12.5-28 28-28s28 12.5 28 28v67.2c0 9.3 7.5 16.8 16.8 16.8h67.2c15.5 0 28 12.5 28 28v14c0 7.7-6.2 14-14 14z m-14-616c0-15.5-12.5-28-28-28h-644c-15.5 0-28 12.5-28 28v702.8c0 29.4 23.8 53.2 53.2 53.2h226.8c15.5 0 28 12.5 28 28s-12.5 28-28 28h-280c-30.9 0-56-25.1-56-56v-784c0-31 25.1-56 56-56h700c30.9 0 56 25 56 56v224c0 15.5-12.5 28-28 28s-28-12.5-28-28v-196z m-570.2 532h174.5c12 0 21.8 6.3 21.8 14v28c0 7.7-9.8 14-21.8 14H249.1c-12.1 0-21.8-6.3-21.8-14v-28c0-7.8 9.8-14 21.8-14z m-21.8-350v-25c0-9.4 8.1-17 18.2-17h443.7c10 0 18.2 7.6 18.2 17v25c0 7.7-6.7 14-15 14h-450c-8.4 0-15.1-6.3-15.1-14z m0 196v-25c0-9.4 10.3-17 22.9-17h261.1c10.4 0 18.9 6.3 18.9 14v28c0 7.7-8.5 14-18.9 14H246.2c-10.4 0-18.9-6.3-18.9-14z" p-id="5195"></path></svg>