<?xml version="1.0" standalone="no"?><!DOCTYPE svg PUBLIC "-//W3C//DTD SVG 1.1//EN" "http://www.w3.org/Graphics/SVG/1.1/DTD/svg11.dtd"><svg t="1535679688508" class="icon" style="" viewBox="0 0 1024 1024" version="1.1" xmlns="http://www.w3.org/2000/svg" p-id="1808" xmlns:xlink="http://www.w3.org/1999/xlink" width="200" height="200"><defs><style type="text/css"></style></defs><path d="M538.29 128.76C273.15 113.42 51.93 332.29 64.51 597.57A445.51 445.51 0 0 0 133.65 816a450.67 450.67 0 0 0 40.51 54.23A74.83 74.83 0 0 0 230.53 896h562.94a74.83 74.83 0 0 0 56.37-25.77A450.67 450.67 0 0 0 890.35 816 445.9 445.9 0 0 0 960 576c0-238.6-186.53-433.63-421.71-447.24z m265.28 671.79A39.87 39.87 0 0 1 772 816H252a39.79 39.79 0 0 1-31.55-15.41A366.32 366.32 0 0 1 144 579.13c-1.66-200.21 158.07-365.81 358.22-371C709.93 202.74 880 369.51 880 576a366.4 366.4 0 0 1-76.43 224.55z" fill="#999999" p-id="1809"></path><path d="M512 296m-40 0a40 40 0 1 0 80 0 40 40 0 1 0-80 0Z" fill="#999999" p-id="1810"></path><path d="M311.54 379.04m-40 0a40 40 0 1 0 80 0 40 40 0 1 0-80 0Z" fill="#999999" p-id="1811"></path><path d="M228.5 579.5m-40 0a40 40 0 1 0 80 0 40 40 0 1 0-80 0Z" fill="#999999" p-id="1812"></path><path d="M795.5 579.5m-40 0a40 40 0 1 0 80 0 40 40 0 1 0-80 0Z" fill="#999999" p-id="1813"></path><path d="M712.47 379.04m-40 0a40 40 0 1 0 80 0 40 40 0 1 0-80 0Z" fill="#999999" p-id="1814"></path><path d="M591.84 401a32 32 0 0 0-40.2 20.78L502.86 575a96 96 0 1 0 61 19.41l48.77-153.19A32 32 0 0 0 591.84 401z" fill="#999999" p-id="1815"></path></svg>